<svg id="Layer_1" data-name="Layer 1" xmlns="http://www.w3.org/2000/svg" xmlns:xlink="http://www.w3.org/1999/xlink" viewBox="0 0 1366 768"><defs><style>.cls-1{fill:#fff;opacity:0.5;}.cls-11,.cls-18,.cls-19,.cls-2,.cls-26,.cls-3,.cls-4{opacity:0.4;}.cls-3{font-size:21.64px;}.cls-11,.cls-19,.cls-3{font-family:NirmalaUI-Semilight, Nirmala UI;}.cls-11,.cls-19,.cls-3,.cls-33{font-weight:300;}.cls-4{font-size:32.46px;}.cls-26,.cls-4{font-family:MyriadPro-Regular, Myriad Pro;}.cls-5{letter-spacing:0em;}.cls-6{letter-spacing:-0.01em;}.cls-7{letter-spacing:0em;}.cls-8{letter-spacing:-0.01em;}.cls-9{letter-spacing:0em;}.cls-10{letter-spacing:0em;}.cls-11{font-size:16.23px;}.cls-12{letter-spacing:-0.01em;}.cls-13{letter-spacing:-0.02em;}.cls-14{letter-spacing:-0.01em;}.cls-15{letter-spacing:-0.08em;}.cls-16{letter-spacing:-0.01em;}.cls-17{letter-spacing:0em;}.cls-19,.cls-26{font-size:24.35px;}.cls-20{letter-spacing:-0.01em;}.cls-21{letter-spacing:0em;}.cls-22{letter-spacing:-0.03em;}.cls-23{letter-spacing:0em;}.cls-24{letter-spacing:-0.01em;}.cls-25{letter-spacing:0em;}.cls-27{letter-spacing:0em;}.cls-28{letter-spacing:-0.01em;}.cls-29{letter-spacing:0em;}.cls-30{letter-spacing:0em;}.cls-31{letter-spacing:0em;}.cls-32{letter-spacing:-0.01em;}.cls-33{font-size:47px;font-family:LeelawadeeUI-Semilight, Leelawadee UI;}.cls-34{font-size:57px;}.cls-34,.cls-35{font-family:AdobeMingStd-Light-B5pc-H, Adobe Ming Std;}.cls-35{font-size:39px;}</style></defs><rect width="1366" height="768"/><image width="6016" height="4016" transform="scale(0.23 0.19)" xlink:href="../../xps-DYAf-8UTFN8-unsplash.jpg"/><rect class="cls-1" x="599" y="1" width="765" height="768"/><path class="cls-2" d="M141.81,144.76l1.85.93"/><text class="cls-3" transform="translate(99.2 80.12) scale(1.01 1)">class Solution</text><text class="cls-4" transform="translate(208.76 265.9) scale(1.01 1)">public i<tspan class="cls-5" x="99.11" y="0">n</tspan><tspan x="117" y="0">t[] sum</tspan><tspan class="cls-6" x="210.88" y="0">Z</tspan><tspan class="cls-7" x="228.45" y="0">e</tspan><tspan class="cls-8" x="244.71" y="0">r</tspan><tspan class="cls-9" x="255" y="0">o(i</tspan><tspan class="cls-10" x="289.64" y="0">n</tspan><tspan x="307.53" y="0">t n)</tspan></text><text class="cls-4" transform="translate(203.2 331.29) scale(1.01 1)">public i<tspan class="cls-5" x="99.11" y="0">n</tspan><tspan x="117" y="0">t[] sum</tspan><tspan class="cls-6" x="210.88" y="0">Z</tspan><tspan class="cls-7" x="228.45" y="0">e</tspan><tspan class="cls-8" x="244.71" y="0">r</tspan><tspan class="cls-9" x="255" y="0">o(i</tspan><tspan class="cls-10" x="289.64" y="0">n</tspan><tspan x="307.53" y="0">t n)</tspan></text><text class="cls-11" transform="translate(4.88 414.53) scale(1.01 1)">public int[] sumZe<tspan class="cls-12" x="125.05" y="0">r</tspan><tspan x="130.33" y="0">o(int n)</tspan></text><text class="cls-11" transform="translate(100.31 161.26) scale(1.01 1)">public int[] sumZe<tspan class="cls-12" x="125.05" y="0">r</tspan><tspan x="130.33" y="0">o(int n)</tspan></text><text class="cls-11" transform="translate(67.88 706.48) scale(1.01 1)">public int[] sumZe<tspan class="cls-12" x="125.05" y="0">r</tspan><tspan x="130.33" y="0">o(int n)</tspan></text><text class="cls-11" transform="translate(363.85 93.93) scale(1.01 1)"> <tspan class="cls-13" x="4.45" y="0">S</tspan><tspan x="12.42" y="0">ys</tspan><tspan class="cls-14" x="26.62" y="0">t</tspan><tspan x="31.65" y="0">em.out.print(ans + &quot; &quot;);</tspan></text><text class="cls-11" transform="translate(280.11 39.41) scale(1.01 1)">char ch = st<tspan class="cls-15" x="82.11" y="0">r</tspan><tspan x="86.27" y="0">.char</tspan><tspan class="cls-16" x="119.74" y="0">A</tspan><tspan x="129.85" y="0">t(i); </tspan></text><text class="cls-11" transform="translate(35.61 361.75) scale(1.01 1)">char ch = st<tspan class="cls-15" x="82.11" y="0">r</tspan><tspan x="86.27" y="0">.char</tspan><tspan class="cls-12" x="119.74" y="0">A</tspan><tspan class="cls-17" x="129.85" y="0">t(i); </tspan></text><text class="cls-11" transform="translate(89.26 634.64) scale(1.01 1)">char ch = st<tspan class="cls-15" x="82.11" y="0">r</tspan><tspan x="86.27" y="0">.char</tspan><tspan class="cls-12" x="119.74" y="0">A</tspan><tspan class="cls-17" x="129.85" y="0">t(i); </tspan></text><text class="cls-11" transform="translate(35.61 579.38) scale(1.01 1)">char ch = st<tspan class="cls-15" x="82.11" y="0">r</tspan><tspan x="86.27" y="0">.char</tspan><tspan class="cls-12" x="119.74" y="0">A</tspan><tspan class="cls-17" x="129.85" y="0">t(i); </tspan></text><g class="cls-18"><path d="M296.7,111.37a2.4,2.4,0,0,0-.89.63,2.94,2.94,0,0,0-.53,1,4.37,4.37,0,0,0-.18,1.29v1.59h-1.67v1h1.67v8.43h1.19v-8.43h2.37v-1h-2.37v-1.51c0-1.45.55-2.18,1.67-2.18a1.87,1.87,0,0,1,1,.26v-1.12a2.76,2.76,0,0,0-1.06-.17A3.17,3.17,0,0,0,296.7,111.37Z"/><path d="M307.5,117a3.87,3.87,0,0,0-1.41-1,4.78,4.78,0,0,0-1.86-.34,5.25,5.25,0,0,0-2,.34,4.08,4.08,0,0,0-1.5,1,4.39,4.39,0,0,0-.95,1.58,6.33,6.33,0,0,0-.33,2.12,6,6,0,0,0,.31,2,4.46,4.46,0,0,0,.91,1.54,4,4,0,0,0,1.44,1,4.8,4.8,0,0,0,1.9.35,5,5,0,0,0,1.94-.36,4.16,4.16,0,0,0,1.45-1,4.72,4.72,0,0,0,.92-1.57,6.16,6.16,0,0,0,.32-2,6.64,6.64,0,0,0-.31-2.08A4.56,4.56,0,0,0,307.5,117Zm-.26,5.32a3.41,3.41,0,0,1-.65,1.24,2.72,2.72,0,0,1-1,.76,3.48,3.48,0,0,1-1.41.27,3.6,3.6,0,0,1-1.42-.28,2.88,2.88,0,0,1-1.07-.78,3.45,3.45,0,0,1-.68-1.22,4.71,4.71,0,0,1-.25-1.6A5.22,5.22,0,0,1,301,119a3.52,3.52,0,0,1,.69-1.25,2.78,2.78,0,0,1,1.08-.78,3.56,3.56,0,0,1,1.42-.27,3,3,0,0,1,2.44,1,4.42,4.42,0,0,1,.86,2.93A6,6,0,0,1,307.24,122.28Z"/><path d="M314.88,115.7a2.33,2.33,0,0,0-1.56.57,2.71,2.71,0,0,0-.59.7,4.44,4.44,0,0,0-.43.93h0v-2h-1.18v9.47h1.18v-4.63a6.1,6.1,0,0,1,.05-.84,6.49,6.49,0,0,1,.16-.88,6,6,0,0,1,.31-.84,2.92,2.92,0,0,1,.47-.71,2.11,2.11,0,0,1,.63-.48,1.92,1.92,0,0,1,.84-.18,1.81,1.81,0,0,1,1.08.3v-1.24a3.44,3.44,0,0,0-.41-.11A4.17,4.17,0,0,0,314.88,115.7Z"/><path d="M325.44,112.08a12.09,12.09,0,0,0-2.87,8.21,11.86,11.86,0,0,0,2.85,8.07h1.13a12.89,12.89,0,0,1,0-16.28Z"/><path d="M329.52,112a.75.75,0,0,0-.28-.18.88.88,0,0,0-.33-.06.85.85,0,0,0-.6.24.79.79,0,0,0-.25.6.81.81,0,0,0,.25.61.85.85,0,0,0,.6.24.88.88,0,0,0,.61-.25.88.88,0,0,0,.19-.27.92.92,0,0,0,.06-.33.74.74,0,0,0-.07-.34A.81.81,0,0,0,329.52,112Z"/><rect x="328.32" y="115.87" width="1.19" height="9.47"/><path d="M337,115.65a3.44,3.44,0,0,0-3.19,1.87h0v-1.65h-1.19v9.47h1.19v-5.42a3.64,3.64,0,0,1,.22-1.29,3.36,3.36,0,0,1,.6-1,2.94,2.94,0,0,1,.92-.68,2.75,2.75,0,0,1,1.15-.24c1.57,0,2.35,1.07,2.35,3.21v5.45h1.19v-5.77a4.49,4.49,0,0,0-.82-2.91A2.9,2.9,0,0,0,337,115.65Z"/><path d="M344.7,113.1l-1.19.39v2.38h-1.67v1h1.67v6c0,1.76.77,2.65,2.31,2.65a3,3,0,0,0,1.34-.31v-1a2,2,0,0,1-1.07.33,1.22,1.22,0,0,1-1.07-.43,2.34,2.34,0,0,1-.32-1.38v-5.8h2.46v-1H344.7Z"/><rect x="354.34" y="115.87" width="1.19" height="9.47"/><path d="M355.53,112a.8.8,0,0,0-.27-.18,1,1,0,0,0-.34-.06.82.82,0,0,0-.59.24.79.79,0,0,0-.25.6.81.81,0,0,0,.25.61.82.82,0,0,0,.59.24.74.74,0,0,0,.34-.07.84.84,0,0,0,.28-.18.71.71,0,0,0,.18-.27.75.75,0,0,0,.07-.33.74.74,0,0,0-.07-.34A.83.83,0,0,0,355.53,112Z"/><rect x="364.34" y="117.44" width="8.59" height="1"/><rect x="364.34" y="121.2" width="8.59" height="1"/><path d="M385.39,111.86a3.6,3.6,0,0,0-3.24,1.8A10.27,10.27,0,0,0,381,119a12.7,12.7,0,0,0,.28,2.84,6.47,6.47,0,0,0,.8,2.06,3.64,3.64,0,0,0,1.28,1.25,3.44,3.44,0,0,0,1.71.42,3.64,3.64,0,0,0,1.82-.45,3.7,3.7,0,0,0,1.35-1.32,7.07,7.07,0,0,0,.85-2.17,13.72,13.72,0,0,0,.28-3C389.4,114.12,388.06,111.86,385.39,111.86Zm2.6,9.41a6.36,6.36,0,0,1-.57,1.8,2.82,2.82,0,0,1-.92,1.1,2.23,2.23,0,0,1-1.27.38,2.39,2.39,0,0,1-2.22-1.44,9.35,9.35,0,0,1-.75-4.21,10.11,10.11,0,0,1,.78-4.51,2.46,2.46,0,0,1,2.27-1.5q2.87,0,2.87,5.91A15,15,0,0,1,388,121.27Z"/><path d="M392.39,115.69a.87.87,0,0,0-.64.25.82.82,0,0,0-.25.63.85.85,0,0,0,.25.63.83.83,0,0,0,.64.26.72.72,0,0,0,.33-.07.81.81,0,0,0,.29-.19,1,1,0,0,0,.2-.28.81.81,0,0,0,.07-.35.82.82,0,0,0-.26-.63A.85.85,0,0,0,392.39,115.69Z"/><polygon points="390.64 127.71 391.54 127.71 393.1 123.24 391.88 123.24 390.64 127.71"/><rect x="401.17" y="115.87" width="1.19" height="9.47"/><path d="M402.36,112a.64.64,0,0,0-.27-.18.92.92,0,0,0-.33-.06.85.85,0,0,0-.6.24.79.79,0,0,0-.25.6.81.81,0,0,0,.25.61.85.85,0,0,0,.6.24.88.88,0,0,0,.61-.25.88.88,0,0,0,.19-.27.92.92,0,0,0,.06-.33.74.74,0,0,0-.07-.34A.7.7,0,0,0,402.36,112Z"/><polygon points="411.53 120.08 419.4 124.03 419.4 122.89 413.27 119.89 413.27 119.86 419.4 116.46 419.4 115.34 411.53 119.72 411.53 120.08"/><path d="M433.3,121.27a3.93,3.93,0,0,0-.83-.59,9.62,9.62,0,0,0-1.19-.55c-.36-.15-.67-.29-.92-.42a3.07,3.07,0,0,1-.61-.41,1.29,1.29,0,0,1-.35-.47,1.67,1.67,0,0,1-.11-.62,1.41,1.41,0,0,1,.14-.62,1.47,1.47,0,0,1,.41-.49,1.86,1.86,0,0,1,.63-.31,2.56,2.56,0,0,1,.81-.11,4.29,4.29,0,0,1,2.31.68v-1.25a4.9,4.9,0,0,0-2.16-.46,4.5,4.5,0,0,0-1.28.18,3.39,3.39,0,0,0-1.08.52,2.84,2.84,0,0,0-.74.84,2.25,2.25,0,0,0-.27,1.11,2.54,2.54,0,0,0,.15.9,2.15,2.15,0,0,0,.46.72,3.09,3.09,0,0,0,.78.6,8,8,0,0,0,1.13.55c.33.14.62.26.89.39a3.39,3.39,0,0,1,.66.4,1.6,1.6,0,0,1,.43.48,1.24,1.24,0,0,1,.15.62c0,1.06-.71,1.59-2.12,1.59a3.63,3.63,0,0,1-.64-.06,4,4,0,0,1-.68-.18c-.22-.09-.44-.18-.65-.29a4,4,0,0,1-.59-.38V125a4.61,4.61,0,0,0,2.43.6,5,5,0,0,0,1.38-.17,3.39,3.39,0,0,0,1.1-.52,2.44,2.44,0,0,0,.73-.84,2.6,2.6,0,0,0,.11-2A2.08,2.08,0,0,0,433.3,121.27Z"/><path d="M438,113.1l-1.19.39v2.38h-1.68v1h1.68v6c0,1.76.77,2.65,2.3,2.65a3,3,0,0,0,1.34-.31v-1a1.92,1.92,0,0,1-1.07.33,1.25,1.25,0,0,1-1.07-.43,2.34,2.34,0,0,1-.31-1.38v-5.8h2.45v-1H438Z"/><path d="M447.09,115.84a3.44,3.44,0,0,0-.41-.11,4.05,4.05,0,0,0-.52,0,2.54,2.54,0,0,0-.83.14,2.7,2.7,0,0,0-.73.43,2.92,2.92,0,0,0-.59.7,4,4,0,0,0-.42.93h0v-2h-1.18v9.47h1.18v-4.63a8.21,8.21,0,0,1,.05-.84,5.26,5.26,0,0,1,.17-.88,4.94,4.94,0,0,1,.3-.84,3.24,3.24,0,0,1,.47-.71,2,2,0,0,1,.64-.48,1.84,1.84,0,0,1,.83-.18,1.81,1.81,0,0,1,1.08.3Z"/><path d="M448.42,124a.92.92,0,0,0-.28-.19.84.84,0,0,0-.35-.07.87.87,0,0,0-.89.9.84.84,0,0,0,.26.63.86.86,0,0,0,.63.26,1,1,0,0,0,.35-.07.92.92,0,0,0,.28-.19,1,1,0,0,0,.2-.29.77.77,0,0,0,.07-.34.86.86,0,0,0-.07-.36A.84.84,0,0,0,448.42,124Z"/><rect x="451.42" y="111.32" width="1.19" height="14.02"/><path d="M462.15,116.88A3.24,3.24,0,0,0,461,116a4,4,0,0,0-1.63-.32,3.88,3.88,0,0,0-1.73.38,3.93,3.93,0,0,0-1.36,1,4.77,4.77,0,0,0-.91,1.57,5.94,5.94,0,0,0-.32,2,7.18,7.18,0,0,0,.29,2.11,4.53,4.53,0,0,0,.85,1.55,3.55,3.55,0,0,0,1.33,1,4.42,4.42,0,0,0,1.74.33,5.54,5.54,0,0,0,3.31-1v-1.16a4.89,4.89,0,0,1-3,1.12,3.42,3.42,0,0,1-1.35-.26,2.77,2.77,0,0,1-1-.73,3.35,3.35,0,0,1-.64-1.18,5.32,5.32,0,0,1-.24-1.56h6.89v-.59a7,7,0,0,0-.25-1.91A4.25,4.25,0,0,0,462.15,116.88Zm-5.88,2.9a4.87,4.87,0,0,1,.36-1.29,3.16,3.16,0,0,1,.65-1,2.64,2.64,0,0,1,.9-.62,3,3,0,0,1,1.12-.21,2.32,2.32,0,0,1,1.89.81,3.56,3.56,0,0,1,.71,2.29Z"/><path d="M469.88,115.65a3.44,3.44,0,0,0-3.19,1.87h0v-1.65h-1.19v9.47h1.19v-5.42a3.88,3.88,0,0,1,.22-1.29,3.2,3.2,0,0,1,.61-1,2.67,2.67,0,0,1,2.07-.92q2.34,0,2.34,3.21v5.45h1.19v-5.77a4.49,4.49,0,0,0-.82-2.91A2.89,2.89,0,0,0,469.88,115.65Z"/><path d="M482.62,117.28h0a3.15,3.15,0,0,0-2.95-1.63,4.07,4.07,0,0,0-1.81.38,3.81,3.81,0,0,0-1.37,1,5,5,0,0,0-.88,1.65,7,7,0,0,0-.3,2.12,6.33,6.33,0,0,0,.28,2,4.73,4.73,0,0,0,.81,1.49,3.69,3.69,0,0,0,1.25.93,4.07,4.07,0,0,0,1.62.32,3.64,3.64,0,0,0,3.35-1.86h0v1.13c0,2.62-1.24,3.92-3.73,3.92a6,6,0,0,1-2.95-.86v1.21a6.56,6.56,0,0,0,2.95.69,4.92,4.92,0,0,0,3.72-1.27,5.53,5.53,0,0,0,1.2-3.91v-8.74h-1.19Zm0,4a3.75,3.75,0,0,1-.22,1.31,3.27,3.27,0,0,1-.63,1,2.83,2.83,0,0,1-1,.7,3.11,3.11,0,0,1-1.28.26,2.72,2.72,0,0,1-2.18-1,3.51,3.51,0,0,1-.6-1.19,5.2,5.2,0,0,1-.22-1.58,5.9,5.9,0,0,1,.23-1.69,3.77,3.77,0,0,1,.65-1.28,2.87,2.87,0,0,1,2.37-1.1,2.73,2.73,0,0,1,2.06.87,2.71,2.71,0,0,1,.6.92,3,3,0,0,1,.21,1.12Z"/><path d="M488.52,113.1l-1.19.39v2.38h-1.67v1h1.67v6c0,1.76.77,2.65,2.31,2.65a3,3,0,0,0,1.34-.31v-1a2,2,0,0,1-1.07.33,1.22,1.22,0,0,1-1.07-.43,2.34,2.34,0,0,1-.32-1.38v-5.8H491v-1h-2.46Z"/><path d="M497.37,115.65a3.53,3.53,0,0,0-3.2,1.86h0v-6.19h-1.19v14h1.19V120a4.17,4.17,0,0,1,.23-1.41,3.28,3.28,0,0,1,.63-1.06,2.69,2.69,0,0,1,2-.89,2.12,2.12,0,0,1,1.8.75,3.87,3.87,0,0,1,.58,2.34v5.57h1.19v-5.85a4.44,4.44,0,0,0-.8-2.87A2.92,2.92,0,0,0,497.37,115.65Z"/><path d="M506.1,112.08a12.08,12.08,0,0,0-2.86,8.21,11.86,11.86,0,0,0,2.84,8.07h1.14a12.87,12.87,0,0,1,0-16.28Z"/><path d="M507.65,112.08a12.86,12.86,0,0,1,0,16.28h1.14a11.91,11.91,0,0,0,2.84-8.07,12.08,12.08,0,0,0-2.86-8.21Z"/><path d="M515.16,115.69a.87.87,0,0,0-.64.25.82.82,0,0,0-.25.63.85.85,0,0,0,.25.63.83.83,0,0,0,.64.26.72.72,0,0,0,.33-.07.81.81,0,0,0,.29-.19,1,1,0,0,0,.2-.28.81.81,0,0,0,.07-.35.82.82,0,0,0-.26-.63A.85.85,0,0,0,515.16,115.69Z"/><polygon points="513.41 127.71 514.31 127.71 515.87 123.24 514.65 123.24 513.41 127.71"/><rect x="523.94" y="115.87" width="1.19" height="9.47"/><path d="M525.14,112a.75.75,0,0,0-.28-.18.92.92,0,0,0-.33-.06.85.85,0,0,0-.6.24.79.79,0,0,0-.25.6.81.81,0,0,0,.25.61.85.85,0,0,0,.6.24.88.88,0,0,0,.61-.25.88.88,0,0,0,.19-.27.92.92,0,0,0,.06-.33.74.74,0,0,0-.07-.34A.81.81,0,0,0,525.14,112Z"/><polygon points="533.52 115.55 532.52 115.55 532.52 119.32 528.72 119.32 528.72 120.33 532.52 120.33 532.52 124.09 533.52 124.09 533.52 120.33 537.32 120.33 537.32 119.32 533.52 119.32 533.52 115.55"/><polygon points="546.23 115.55 545.22 115.55 545.22 119.32 541.43 119.32 541.43 120.33 545.22 120.33 545.22 124.09 546.23 124.09 546.23 120.33 550.02 120.33 550.02 119.32 546.23 119.32 546.23 115.55"/><path d="M553.43,112.08h-1.15a12.89,12.89,0,0,1,0,16.28h1.13a11.86,11.86,0,0,0,2.85-8.07A12.08,12.08,0,0,0,553.43,112.08Z"/></g><g class="cls-18"><path d="M333.42,204.49a1,1,0,0,0-.32-.2,1.17,1.17,0,0,0-.38-.07,1,1,0,0,0-.68.27,1,1,0,0,0,0,1.38.93.93,0,0,0,.68.28,1,1,0,0,0,.39-.08.79.79,0,0,0,.31-.2,1,1,0,0,0,.22-.31,1.22,1.22,0,0,0,.07-.38,1,1,0,0,0-.08-.39A.81.81,0,0,0,333.42,204.49Z"/><rect x="332.05" y="208.89" width="1.36" height="10.82"/><path d="M348.56,208.63a3.75,3.75,0,0,0-2.08.6A4.41,4.41,0,0,0,345,211a3.17,3.17,0,0,0-.44-1,3.34,3.34,0,0,0-.7-.75,2.94,2.94,0,0,0-.91-.48,3.22,3.22,0,0,0-1.08-.18,3.64,3.64,0,0,0-3.35,2h-.05v-1.75H337.1v10.82h1.36V213.5a5,5,0,0,1,.22-1.5,3.6,3.6,0,0,1,.61-1.17,2.87,2.87,0,0,1,.91-.76,2.38,2.38,0,0,1,1.12-.27q2.63,0,2.63,3.41v6.5h1.36v-6.26a4.53,4.53,0,0,1,.23-1.44,3.55,3.55,0,0,1,.63-1.15,2.9,2.9,0,0,1,.93-.78,2.44,2.44,0,0,1,1.12-.28,3.35,3.35,0,0,1,1.16.19,1.79,1.79,0,0,1,.79.62,2.81,2.81,0,0,1,.47,1.09,7.77,7.77,0,0,1,.14,1.64v6.37h1.37V213Q352.15,208.64,348.56,208.63Z"/><path d="M364.25,210.07a3.82,3.82,0,0,0-1.39-1.06,4.72,4.72,0,0,0-4.16.22,4.37,4.37,0,0,0-1.62,1.73h0v-2.07h-1.36v15.79H357V218h0a3.72,3.72,0,0,0,3.44,2,4.63,4.63,0,0,0,2-.44,4.41,4.41,0,0,0,1.55-1.23,5.61,5.61,0,0,0,1-1.9,8.13,8.13,0,0,0,.34-2.44,7.53,7.53,0,0,0-.3-2.21A4.91,4.91,0,0,0,364.25,210.07Zm-.47,5.87a4.87,4.87,0,0,1-.72,1.54,3.15,3.15,0,0,1-2.6,1.32,3.32,3.32,0,0,1-1.39-.29,3.17,3.17,0,0,1-1.08-.77,3.62,3.62,0,0,1-.7-1.15,3.73,3.73,0,0,1-.25-1.39v-1.43a4.57,4.57,0,0,1,.26-1.54A3.76,3.76,0,0,1,358,211a3.29,3.29,0,0,1,1.16-.85,3.58,3.58,0,0,1,1.53-.32,3.15,3.15,0,0,1,1.36.29,2.89,2.89,0,0,1,1.05.82,3.94,3.94,0,0,1,.66,1.31,5.73,5.73,0,0,1,.23,1.72A7.67,7.67,0,0,1,363.78,215.94Z"/><path d="M377,210.13a4.31,4.31,0,0,0-1.6-1.11,5.54,5.54,0,0,0-2.13-.39A6.1,6.1,0,0,0,371,209a4.67,4.67,0,0,0-1.71,1.14,5.21,5.21,0,0,0-1.09,1.81,7.27,7.27,0,0,0-.38,2.42,6.8,6.8,0,0,0,.36,2.27,5,5,0,0,0,1,1.76,4.69,4.69,0,0,0,1.65,1.14,5.52,5.52,0,0,0,2.17.4,5.73,5.73,0,0,0,2.21-.41,4.69,4.69,0,0,0,1.66-1.16,5.34,5.34,0,0,0,1.05-1.8,7,7,0,0,0,.36-2.3,7.31,7.31,0,0,0-.35-2.38A4.93,4.93,0,0,0,377,210.13Zm-.29,6.08a3.87,3.87,0,0,1-.74,1.41,3.17,3.17,0,0,1-1.19.88,4.06,4.06,0,0,1-1.61.3,4.18,4.18,0,0,1-1.62-.31,3.44,3.44,0,0,1-1.23-.9,4.26,4.26,0,0,1-.78-1.39,5.76,5.76,0,0,1-.28-1.83,6.37,6.37,0,0,1,.28-1.93,4.25,4.25,0,0,1,.79-1.44,3.54,3.54,0,0,1,1.24-.89,4.18,4.18,0,0,1,1.62-.31A3.45,3.45,0,0,1,376,211a5,5,0,0,1,1,3.35A6.53,6.53,0,0,1,376.69,216.21Z"/><path d="M385.72,208.68a2.71,2.71,0,0,0-1,.17,3.08,3.08,0,0,0-.84.49,3.31,3.31,0,0,0-.67.8,4.5,4.5,0,0,0-.49,1.06h0v-2.31h-1.35v10.82h1.35v-5.3a8.24,8.24,0,0,1,.06-1,6.78,6.78,0,0,1,.19-1,6.09,6.09,0,0,1,.35-1,3.34,3.34,0,0,1,.53-.81,2.31,2.31,0,0,1,.73-.55,2.12,2.12,0,0,1,1-.21,2.06,2.06,0,0,1,1.23.35v-1.42a2.15,2.15,0,0,0-.47-.12A3.51,3.51,0,0,0,385.72,208.68Z"/><path d="M391.67,205.71l-1.36.45v2.73h-1.92v1.18h1.92v6.84c0,2,.88,3,2.63,3a3.45,3.45,0,0,0,1.54-.35v-1.19a2.25,2.25,0,0,1-1.23.38,1.44,1.44,0,0,1-1.22-.49,2.7,2.7,0,0,1-.36-1.59v-6.62h2.81v-1.18h-2.81Z"/><path d="M404.05,204.49a.87.87,0,0,0-.32-.2,1.17,1.17,0,0,0-.38-.07,1,1,0,0,0-.68.27,1,1,0,0,0,0,1.38.93.93,0,0,0,.68.28,1,1,0,0,0,.39-.08.79.79,0,0,0,.31-.2,1,1,0,0,0,.22-.31,1.22,1.22,0,0,0,.07-.38,1,1,0,0,0-.08-.39A.81.81,0,0,0,404.05,204.49Z"/><path d="M402.68,219.56c0,2.7-.86,4.06-2.57,4.06a3.14,3.14,0,0,1-1.57-.49v1.31a3.79,3.79,0,0,0,4.55-1,7.28,7.28,0,0,0,1-4.08V208.89h-1.36Z"/><path d="M411.61,208.63a6.58,6.58,0,0,0-1,.08,7.91,7.91,0,0,0-1,.22,8.15,8.15,0,0,0-.91.34,5.16,5.16,0,0,0-.77.44v1.48a5.37,5.37,0,0,1,3.53-1.39c1.63,0,2.44,1,2.44,3.12l-3.31.48a4.89,4.89,0,0,0-2.76,1.13,3.09,3.09,0,0,0-.92,2.34,3.22,3.22,0,0,0,.24,1.26,2.83,2.83,0,0,0,.68,1,3.2,3.2,0,0,0,1.08.63,4.19,4.19,0,0,0,1.42.22,3.83,3.83,0,0,0,2.07-.57,3.91,3.91,0,0,0,1.45-1.61h.05v1.93h1.36v-7a4.32,4.32,0,0,0-.93-3A3.54,3.54,0,0,0,411.61,208.63Zm2.32,6.5a4.36,4.36,0,0,1-.25,1.47,3.61,3.61,0,0,1-.69,1.16,3.14,3.14,0,0,1-1.05.76,3.08,3.08,0,0,1-1.33.28,2.83,2.83,0,0,1-.95-.15,2,2,0,0,1-.71-.42,1.69,1.69,0,0,1-.45-.64,2.07,2.07,0,0,1-.15-.8,2.58,2.58,0,0,1,.16-1,1.53,1.53,0,0,1,.5-.66,2.39,2.39,0,0,1,.86-.43,7.67,7.67,0,0,1,1.25-.27l2.81-.39Z"/><path d="M422.34,217.17a7.37,7.37,0,0,0-.33,1.28h0a6.52,6.52,0,0,0-.35-1.32l-3-8.24h-1.5l4.17,10.82h1.3l4.33-10.82h-1.45Z"/><path d="M433,208.63a6.58,6.58,0,0,0-1,.08,6.94,6.94,0,0,0-1.89.56,4.32,4.32,0,0,0-.77.44v1.48a5.35,5.35,0,0,1,3.52-1.39c1.63,0,2.44,1,2.44,3.12l-3.31.48a4.89,4.89,0,0,0-2.76,1.13,3.09,3.09,0,0,0-.92,2.34,3.22,3.22,0,0,0,.24,1.26,2.83,2.83,0,0,0,.68,1,3.2,3.2,0,0,0,1.08.63,4.19,4.19,0,0,0,1.42.22,3.89,3.89,0,0,0,2.08-.57,4.05,4.05,0,0,0,1.45-1.61h0v1.93h1.36v-7a4.32,4.32,0,0,0-.93-3A3.54,3.54,0,0,0,433,208.63Zm2.32,6.5a4.13,4.13,0,0,1-.25,1.47,3.61,3.61,0,0,1-.69,1.16,3.14,3.14,0,0,1-1.05.76,3.08,3.08,0,0,1-1.33.28,2.83,2.83,0,0,1-.95-.15,2,2,0,0,1-.71-.42,1.69,1.69,0,0,1-.45-.64,2.07,2.07,0,0,1-.15-.8,2.58,2.58,0,0,1,.16-1,1.53,1.53,0,0,1,.5-.66,2.39,2.39,0,0,1,.86-.43,7.67,7.67,0,0,1,1.25-.27l2.81-.39Z"/><path d="M441.66,218.17a1.15,1.15,0,0,0-.33-.21.9.9,0,0,0-.4-.08,1,1,0,0,0-1,1,1,1,0,0,0,.3.72,1,1,0,0,0,.72.3,1.06,1.06,0,0,0,.4-.08,1.19,1.19,0,0,0,.33-.22,1.21,1.21,0,0,0,.22-.32.9.9,0,0,0,.08-.4,1,1,0,0,0-.08-.41A1.07,1.07,0,0,0,441.66,218.17Z"/><path d="M452.25,215.07a4.62,4.62,0,0,1-.23,1.52,3.46,3.46,0,0,1-.65,1.18,3,3,0,0,1-1,.76,3,3,0,0,1-1.28.27,2.48,2.48,0,0,1-2.13-.93,4.77,4.77,0,0,1-.7-2.88v-6.1H444.9v6.36q0,4.71,3.88,4.71a3.64,3.64,0,0,0,3.43-2.09h0v1.84h1.37V208.89h-1.37Z"/><path d="M459.33,205.71l-1.37.45v2.73h-1.91v1.18H458v6.84c0,2,.88,3,2.64,3a3.44,3.44,0,0,0,1.53-.35v-1.19a2.24,2.24,0,0,1-1.22.38,1.44,1.44,0,0,1-1.22-.49,2.7,2.7,0,0,1-.36-1.59v-6.62h2.8v-1.18h-2.8Z"/><path d="M466,204.49a.92.92,0,0,0-.31-.2,1.23,1.23,0,0,0-.39-.07,1,1,0,0,0-.68.27,1,1,0,0,0,0,1.38.94.94,0,0,0,.68.28.93.93,0,0,0,.39-.08.91.91,0,0,0,.32-.2,1,1,0,0,0,.21-.31,1,1,0,0,0,.07-.38.83.83,0,0,0-.08-.39A.81.81,0,0,0,466,204.49Z"/><rect x="464.64" y="208.89" width="1.36" height="10.82"/><rect x="469.71" y="203.69" width="1.36" height="16.02"/><path d="M476.19,218.17a.93.93,0,0,0-.33-.21.85.85,0,0,0-.39-.08,1,1,0,1,0,0,2,1,1,0,0,0,.39-.08,1,1,0,0,0,.33-.22,1.21,1.21,0,0,0,.22-.32.9.9,0,0,0,.09-.4,1,1,0,0,0-.09-.41A1.07,1.07,0,0,0,476.19,218.17Z"/><path d="M485,204.55l-5.8,15.16h1.57l1.64-4.48h6.54l1.68,4.48h1.57l-5.77-15.16Zm-2.11,9.4,2.46-6.75a4.79,4.79,0,0,0,.16-.46c.05-.18.1-.38.14-.6h0a4.43,4.43,0,0,0,.14.6c.05.18.1.33.15.46l2.49,6.75Z"/><path d="M499,208.68a2.75,2.75,0,0,0-.95.17,3,3,0,0,0-.83.49,3.34,3.34,0,0,0-.68.8,4.93,4.93,0,0,0-.48,1.06h0v-2.31H494.7v10.82h1.35v-5.3a8.24,8.24,0,0,1,.06-1,5.69,5.69,0,0,1,.19-1,5.23,5.23,0,0,1,.35-1,3.07,3.07,0,0,1,.53-.81,2.31,2.31,0,0,1,.73-.55,2,2,0,0,1,.95-.21,2.07,2.07,0,0,1,1.24.35v-1.42a2.11,2.11,0,0,0-.48-.12A3.42,3.42,0,0,0,499,208.68Z"/><path d="M506.8,208.68a2.75,2.75,0,0,0-.95.17,3,3,0,0,0-.83.49,3.34,3.34,0,0,0-.68.8,4.93,4.93,0,0,0-.48,1.06h0v-2.31h-1.35v10.82h1.35v-5.3a8.24,8.24,0,0,1,.06-1,5.69,5.69,0,0,1,.19-1,5.23,5.23,0,0,1,.35-1,3.07,3.07,0,0,1,.53-.81,2.31,2.31,0,0,1,.73-.55,2,2,0,0,1,.95-.21,2.07,2.07,0,0,1,1.24.35v-1.42a2.25,2.25,0,0,0-.48-.12A3.42,3.42,0,0,0,506.8,208.68Z"/><path d="M514.05,208.63a6.58,6.58,0,0,0-1,.08,7.91,7.91,0,0,0-1,.22,8.15,8.15,0,0,0-.91.34,5.16,5.16,0,0,0-.77.44v1.48a5.37,5.37,0,0,1,3.53-1.39c1.62,0,2.44,1,2.44,3.12l-3.31.48a4.89,4.89,0,0,0-2.76,1.13,3.09,3.09,0,0,0-.92,2.34,3.22,3.22,0,0,0,.24,1.26,2.83,2.83,0,0,0,.68,1,3.06,3.06,0,0,0,1.07.63,4.27,4.27,0,0,0,1.42.22,3.84,3.84,0,0,0,2.08-.57,4,4,0,0,0,1.45-1.61h0v1.93h1.36v-7a4.32,4.32,0,0,0-.93-3A3.54,3.54,0,0,0,514.05,208.63Zm2.32,6.5a4.36,4.36,0,0,1-.25,1.47,3.61,3.61,0,0,1-.69,1.16,3.14,3.14,0,0,1-1,.76,3.11,3.11,0,0,1-1.33.28,2.79,2.79,0,0,1-.95-.15,2,2,0,0,1-.71-.42,1.69,1.69,0,0,1-.45-.64,2.08,2.08,0,0,1-.16-.8,2.79,2.79,0,0,1,.16-1,1.71,1.71,0,0,1,.5-.66,2.53,2.53,0,0,1,.87-.43,7.67,7.67,0,0,1,1.25-.27l2.81-.39Z"/><path d="M524.7,217.5a3.05,3.05,0,0,0-.13.4c0,.13-.07.25-.11.37h-.05c0-.14-.07-.28-.11-.43s-.08-.27-.12-.38l-3.12-8.57h-1.51l4.19,10.76-.94,2.22a3.32,3.32,0,0,1-.86,1.27,1.79,1.79,0,0,1-1.16.41,2.63,2.63,0,0,1-.49,0,2.52,2.52,0,0,1-.47-.13v1.27a3.15,3.15,0,0,0,1,.14,2.89,2.89,0,0,0,2-.77,6.37,6.37,0,0,0,1.46-2.35l5.16-12.78H528Z"/><polygon points="533.34 204.55 531.92 204.55 531.92 219.71 539.46 219.71 539.46 218.43 533.34 218.43 533.34 204.55"/><path d="M543.44,204.49a.87.87,0,0,0-.32-.2,1.17,1.17,0,0,0-.38-.07,1,1,0,0,0-.68.27,1,1,0,0,0,0,1.38.93.93,0,0,0,.68.28,1,1,0,0,0,.39-.08.79.79,0,0,0,.31-.2.84.84,0,0,0,.22-.31,1,1,0,0,0,.07-.38,1,1,0,0,0-.08-.39A.81.81,0,0,0,543.44,204.49Z"/><rect x="542.07" y="208.89" width="1.36" height="10.82"/><path d="M552.44,215.05a4,4,0,0,0-1-.67,11.83,11.83,0,0,0-1.36-.63c-.41-.17-.76-.33-1-.48a3.49,3.49,0,0,1-.71-.46,1.55,1.55,0,0,1-.39-.55,1.68,1.68,0,0,1-.13-.7,1.51,1.51,0,0,1,.16-.71,1.68,1.68,0,0,1,.47-.56,2.25,2.25,0,0,1,.71-.36,3.37,3.37,0,0,1,.93-.13,4.77,4.77,0,0,1,2.64.79v-1.43a5.45,5.45,0,0,0-2.47-.53,5.05,5.05,0,0,0-1.46.21,4.12,4.12,0,0,0-1.23.59,3,3,0,0,0-.84,1,2.55,2.55,0,0,0-.32,1.27,3,3,0,0,0,.17,1,2.55,2.55,0,0,0,.53.83,3.81,3.81,0,0,0,.89.69,9.37,9.37,0,0,0,1.3.62l1,.45a3.93,3.93,0,0,1,.76.46,1.8,1.8,0,0,1,.49.55,1.46,1.46,0,0,1,.17.71c0,1.21-.81,1.81-2.42,1.81a3.85,3.85,0,0,1-.74-.07,5.16,5.16,0,0,1-.77-.21,6.26,6.26,0,0,1-.75-.32,5.16,5.16,0,0,1-.67-.44v1.51a5.23,5.23,0,0,0,2.78.69,6,6,0,0,0,1.57-.2,3.86,3.86,0,0,0,1.26-.59,2.88,2.88,0,0,0,1-3.3A2.32,2.32,0,0,0,552.44,215.05Z"/><path d="M558.26,205.71l-1.36.45v2.73H555v1.18h1.91v6.84c0,2,.88,3,2.64,3a3.44,3.44,0,0,0,1.53-.35v-1.19a2.24,2.24,0,0,1-1.22.38,1.45,1.45,0,0,1-1.23-.49,2.7,2.7,0,0,1-.36-1.59v-6.62h2.81v-1.18h-2.81Z"/><path d="M565.33,209a1.05,1.05,0,0,0-1.45,0,1,1,0,0,0,.73,1.74.84.84,0,0,0,.38-.08,1.15,1.15,0,0,0,.33-.21,1,1,0,0,0,.22-.33.87.87,0,0,0,.09-.4A1,1,0,0,0,565.33,209Z"/><polygon points="562.61 222.41 563.64 222.41 565.42 217.31 564.02 217.31 562.61 222.41"/></g><g class="cls-18"><path d="M361.22,371.91a1.1,1.1,0,0,0-.31-.2,1.21,1.21,0,0,0-.38-.06,1,1,0,0,0-.68.27.89.89,0,0,0-.29.68.91.91,0,0,0,.29.69.93.93,0,0,0,.68.28,1.12,1.12,0,0,0,.38-.07,1,1,0,0,0,.32-.21,1,1,0,0,0,.21-.31,1,1,0,0,0,.08-.38,1,1,0,0,0-.08-.39A1.11,1.11,0,0,0,361.22,371.91Z"/><rect x="359.86" y="376.31" width="1.36" height="10.82"/><path d="M376.37,376.05a3.65,3.65,0,0,0-2.08.61,4.31,4.31,0,0,0-1.49,1.75,3.44,3.44,0,0,0-.44-1,3.34,3.34,0,0,0-.7-.75,3.16,3.16,0,0,0-.91-.48,3.28,3.28,0,0,0-1.09-.18,3.65,3.65,0,0,0-3.35,2h0v-1.75h-1.36v10.82h1.36v-6.21a4.77,4.77,0,0,1,.22-1.5,3.4,3.4,0,0,1,.6-1.17,3,3,0,0,1,.91-.75,2.44,2.44,0,0,1,1.13-.27q2.63,0,2.63,3.4v6.5h1.36v-6.26a4.52,4.52,0,0,1,.22-1.44,4,4,0,0,1,.63-1.15,3,3,0,0,1,.93-.77,2.36,2.36,0,0,1,1.13-.28,3.08,3.08,0,0,1,1.15.19,1.78,1.78,0,0,1,.8.61,2.8,2.8,0,0,1,.46,1.09,7.74,7.74,0,0,1,.15,1.65v6.36H380v-6.68Q380,376.05,376.37,376.05Z"/><path d="M392.06,377.49a3.82,3.82,0,0,0-1.39-1.06,4.72,4.72,0,0,0-4.16.22,4.24,4.24,0,0,0-1.62,1.73h0v-2.07h-1.36v15.8h1.36v-6.73h0a3.69,3.69,0,0,0,3.43,2,4.71,4.71,0,0,0,2.05-.44,4.5,4.5,0,0,0,1.55-1.23,5.59,5.59,0,0,0,1-1.9,8.13,8.13,0,0,0,.34-2.44,7.53,7.53,0,0,0-.3-2.21A4.73,4.73,0,0,0,392.06,377.49Zm-.48,5.88a4.81,4.81,0,0,1-.71,1.53,3.08,3.08,0,0,1-2.6,1.32,3.34,3.34,0,0,1-2.48-1.06,3.48,3.48,0,0,1-.69-1.14,3.81,3.81,0,0,1-.25-1.39v-1.44a4.61,4.61,0,0,1,.25-1.54,3.93,3.93,0,0,1,.73-1.26,3.52,3.52,0,0,1,1.16-.85,3.64,3.64,0,0,1,1.53-.31,3.2,3.2,0,0,1,1.37.28,2.8,2.8,0,0,1,1,.83,3.8,3.8,0,0,1,.67,1.3,6.07,6.07,0,0,1,.23,1.72A7.37,7.37,0,0,1,391.58,383.37Z"/><path d="M404.79,377.55a4.46,4.46,0,0,0-1.61-1.11,5.52,5.52,0,0,0-2.12-.39,6,6,0,0,0-2.23.39,4.59,4.59,0,0,0-1.71,1.14,5.07,5.07,0,0,0-1.09,1.81,7,7,0,0,0-.38,2.42,6.8,6.8,0,0,0,.36,2.27,5,5,0,0,0,1,1.76,4.65,4.65,0,0,0,1.64,1.14,5.57,5.57,0,0,0,2.18.4,5.76,5.76,0,0,0,2.21-.41,4.78,4.78,0,0,0,1.66-1.16,5.21,5.21,0,0,0,1-1.79,6.83,6.83,0,0,0,.37-2.31,7.59,7.59,0,0,0-.35-2.38A5.08,5.08,0,0,0,404.79,377.55Zm-.29,6.08a3.94,3.94,0,0,1-.74,1.41,3.22,3.22,0,0,1-1.19.88,4.11,4.11,0,0,1-1.62.3,4.16,4.16,0,0,1-1.61-.31,3.27,3.27,0,0,1-1.23-.9,3.93,3.93,0,0,1-.78-1.39,5.5,5.5,0,0,1-.28-1.83,6.08,6.08,0,0,1,.28-1.93,3.89,3.89,0,0,1,.79-1.43,3.28,3.28,0,0,1,1.24-.9,4.16,4.16,0,0,1,1.61-.3,3.47,3.47,0,0,1,2.8,1.15,5.07,5.07,0,0,1,1,3.35A6.89,6.89,0,0,1,404.5,383.63Z"/><path d="M413.52,376.11a2.75,2.75,0,0,0-.95.16,2.83,2.83,0,0,0-.83.5,3.29,3.29,0,0,0-.68.79,5.16,5.16,0,0,0-.48,1.06h0v-2.31h-1.35v10.82h1.35v-5.3c0-.3,0-.62,0-1a6.81,6.81,0,0,1,.2-1,4.81,4.81,0,0,1,.35-1,3.24,3.24,0,0,1,.53-.81,2.46,2.46,0,0,1,.73-.55,2,2,0,0,1,1-.21,2.07,2.07,0,0,1,1.24.35v-1.42a3.06,3.06,0,0,0-.48-.12A3.49,3.49,0,0,0,413.52,376.11Z"/><path d="M419.47,373.14l-1.36.44v2.73H416.2v1.18h1.91v6.84c0,2,.88,3,2.64,3a3.44,3.44,0,0,0,1.53-.35v-1.19a2.24,2.24,0,0,1-1.22.38,1.42,1.42,0,0,1-1.22-.49,2.68,2.68,0,0,1-.37-1.58v-6.63h2.81v-1.18h-2.81Z"/><path d="M431.85,371.91a1.1,1.1,0,0,0-.31-.2,1.21,1.21,0,0,0-.38-.06,1,1,0,0,0-.68.27.89.89,0,0,0-.29.68.91.91,0,0,0,.29.69.93.93,0,0,0,.68.28,1.12,1.12,0,0,0,.38-.07,1,1,0,0,0,.32-.21,1,1,0,0,0,.21-.31,1,1,0,0,0,.08-.38,1,1,0,0,0-.08-.39A1.11,1.11,0,0,0,431.85,371.91Z"/><path d="M430.49,387q0,4.06-2.58,4.06a3.08,3.08,0,0,1-1.57-.49v1.31a3.47,3.47,0,0,0,1.5.36,3.43,3.43,0,0,0,3.05-1.39,7.19,7.19,0,0,0,1-4.08V376.31h-1.36Z"/><path d="M439.42,376.05a6.83,6.83,0,0,0-1,.08,7.23,7.23,0,0,0-1.89.56,4.7,4.7,0,0,0-.77.44v1.48a5.34,5.34,0,0,1,3.53-1.38c1.62,0,2.43,1,2.43,3.11l-3.3.48a4.89,4.89,0,0,0-2.77,1.13,3.11,3.11,0,0,0-.91,2.35,3.2,3.2,0,0,0,.24,1.25,2.7,2.7,0,0,0,.68,1,3.06,3.06,0,0,0,1.07.63,4.23,4.23,0,0,0,1.42.22,3.87,3.87,0,0,0,2.08-.57,3.92,3.92,0,0,0,1.45-1.61h0v1.93h1.36v-7a4.32,4.32,0,0,0-.93-3A3.52,3.52,0,0,0,439.42,376.05Zm2.31,6.5a4.13,4.13,0,0,1-.25,1.47,3.28,3.28,0,0,1-.69,1.16,3,3,0,0,1-1.05.76,3,3,0,0,1-1.32.28,2.89,2.89,0,0,1-1-.15,2.09,2.09,0,0,1-.71-.42,1.79,1.79,0,0,1-.44-.64,1.91,1.91,0,0,1-.16-.8,2.79,2.79,0,0,1,.16-1,1.61,1.61,0,0,1,.5-.66,2.77,2.77,0,0,1,.86-.43,8.14,8.14,0,0,1,1.26-.26l2.8-.4Z"/><path d="M450.15,384.59a5.92,5.92,0,0,0-.33,1.28h0a6.52,6.52,0,0,0-.35-1.32l-3-8.24h-1.5l4.16,10.82h1.3l4.34-10.82h-1.46Z"/><path d="M460.8,376.05a6.83,6.83,0,0,0-1,.08,7.23,7.23,0,0,0-1.89.56,4.7,4.7,0,0,0-.77.44v1.48a5.34,5.34,0,0,1,3.53-1.38c1.62,0,2.43,1,2.43,3.11l-3.3.48A4.92,4.92,0,0,0,457,382a3.11,3.11,0,0,0-.91,2.35,3.2,3.2,0,0,0,.24,1.25,2.83,2.83,0,0,0,.68,1,3.06,3.06,0,0,0,1.07.63,4.23,4.23,0,0,0,1.42.22,3.87,3.87,0,0,0,2.08-.57,3.92,3.92,0,0,0,1.45-1.61h0v1.93h1.36v-7a4.27,4.27,0,0,0-.93-3A3.52,3.52,0,0,0,460.8,376.05Zm2.31,6.5a4.13,4.13,0,0,1-.25,1.47,3.28,3.28,0,0,1-.69,1.16,3,3,0,0,1-1,.76,3.11,3.11,0,0,1-1.33.28,2.79,2.79,0,0,1-.95-.15,2.14,2.14,0,0,1-.72-.42,1.79,1.79,0,0,1-.44-.64,2.08,2.08,0,0,1-.16-.8,2.79,2.79,0,0,1,.16-1,1.71,1.71,0,0,1,.5-.66,2.77,2.77,0,0,1,.86-.43,8.14,8.14,0,0,1,1.26-.26l2.8-.4Z"/><path d="M469.46,385.59a1,1,0,0,0-.32-.21,1.1,1.1,0,0,0-.4-.08,1,1,0,0,0-.73.3,1,1,0,0,0-.29.72,1,1,0,0,0,1,1,1.1,1.1,0,0,0,.4-.08,1.07,1.07,0,0,0,.54-.54.87.87,0,0,0,.09-.4,1,1,0,0,0-.09-.41A1,1,0,0,0,469.46,385.59Z"/><path d="M480.06,382.49a4.89,4.89,0,0,1-.23,1.52,3.65,3.65,0,0,1-.66,1.18,2.86,2.86,0,0,1-1,.76,3,3,0,0,1-1.28.27,2.49,2.49,0,0,1-2.13-.93,4.84,4.84,0,0,1-.7-2.88v-6.1H472.7v6.36c0,3.14,1.3,4.71,3.88,4.71a3.65,3.65,0,0,0,3.44-2.09h0v1.84h1.36V376.31h-1.36Z"/><path d="M487.13,373.14l-1.36.44v2.73h-1.91v1.18h1.91v6.84c0,2,.88,3,2.64,3a3.44,3.44,0,0,0,1.53-.35v-1.19a2.25,2.25,0,0,1-1.23.38,1.44,1.44,0,0,1-1.22-.49,2.69,2.69,0,0,1-.36-1.58v-6.63h2.81v-1.18h-2.81Z"/><path d="M493.82,371.91a1.16,1.16,0,0,0-.32-.2,1.21,1.21,0,0,0-.38-.06,1,1,0,0,0-.68.27.89.89,0,0,0-.29.68.91.91,0,0,0,.29.69.93.93,0,0,0,.68.28,1.23,1.23,0,0,0,.39-.07,1.06,1.06,0,0,0,.31-.21A1,1,0,0,0,494,373a1,1,0,0,0,.08-.38,1,1,0,0,0-.08-.39A1.08,1.08,0,0,0,493.82,371.91Z"/><rect x="492.45" y="376.31" width="1.36" height="10.82"/><rect x="497.51" y="371.11" width="1.36" height="16.02"/><path d="M504,385.59a1,1,0,0,0-.32-.21,1.06,1.06,0,0,0-.4-.08,1,1,0,0,0-1,1,1,1,0,0,0,.3.72,1,1,0,0,0,.72.3,1.06,1.06,0,0,0,.4-.08A1,1,0,0,0,504,387a1,1,0,0,0,.23-.32,1,1,0,0,0,.08-.4,1.15,1.15,0,0,0-.08-.41A1,1,0,0,0,504,385.59Z"/><path d="M512.79,372,507,387.13h1.57l1.64-4.48h6.53l1.68,4.48H520L514.21,372Zm-2.12,9.4,2.47-6.74c.05-.14.1-.29.15-.47a4,4,0,0,0,.15-.6h0c0,.22.08.43.13.6l.16.47,2.48,6.74Z"/><path d="M526.84,376.11a2.75,2.75,0,0,0-1,.16,3,3,0,0,0-.84.5,3.26,3.26,0,0,0-.67.79,4.28,4.28,0,0,0-.48,1.06h0v-2.31H522.5v10.82h1.35v-5.3a8.24,8.24,0,0,1,.06-1,6.78,6.78,0,0,1,.19-1,6.48,6.48,0,0,1,.35-1,3.57,3.57,0,0,1,.54-.81,2.42,2.42,0,0,1,.72-.55,2.12,2.12,0,0,1,1-.21,2.06,2.06,0,0,1,1.23.35v-1.42a2.93,2.93,0,0,0-.47-.12A3.49,3.49,0,0,0,526.84,376.11Z"/><path d="M534.61,376.11a2.75,2.75,0,0,0-1,.16,3,3,0,0,0-.84.5,3.26,3.26,0,0,0-.67.79,4.7,4.7,0,0,0-.49,1.06h0v-2.31h-1.35v10.82h1.35v-5.3a8.24,8.24,0,0,1,.06-1,6.78,6.78,0,0,1,.19-1,6.48,6.48,0,0,1,.35-1,3.91,3.91,0,0,1,.53-.81,2.6,2.6,0,0,1,.73-.55,2.12,2.12,0,0,1,1-.21,2.06,2.06,0,0,1,1.23.35v-1.42a2.93,2.93,0,0,0-.47-.12A3.49,3.49,0,0,0,534.61,376.11Z"/><path d="M541.85,376.05a6.69,6.69,0,0,0-1,.08,7.75,7.75,0,0,0-1,.22,8.15,8.15,0,0,0-.91.34,4.32,4.32,0,0,0-.77.44v1.48a5.34,5.34,0,0,1,3.53-1.38c1.62,0,2.43,1,2.43,3.11l-3.3.48A4.89,4.89,0,0,0,538.1,382a3.11,3.11,0,0,0-.91,2.35,3.2,3.2,0,0,0,.24,1.25,2.7,2.7,0,0,0,.68,1,3.06,3.06,0,0,0,1.07.63,4.19,4.19,0,0,0,1.42.22,3.87,3.87,0,0,0,2.08-.57,4,4,0,0,0,1.45-1.61h0v1.93h1.36v-7a4.32,4.32,0,0,0-.93-3A3.53,3.53,0,0,0,541.85,376.05Zm2.32,6.5a4.13,4.13,0,0,1-.25,1.47,3.44,3.44,0,0,1-.69,1.16,3,3,0,0,1-1.05.76,3,3,0,0,1-1.33.28,2.83,2.83,0,0,1-1-.15,2.09,2.09,0,0,1-.71-.42,2,2,0,0,1-.45-.64,2.07,2.07,0,0,1-.15-.8,2.58,2.58,0,0,1,.16-1,1.61,1.61,0,0,1,.5-.66,2.66,2.66,0,0,1,.86-.43,8.25,8.25,0,0,1,1.25-.26l2.81-.4Z"/><path d="M552.5,384.92c0,.15-.1.28-.13.41s-.06.24-.1.36h0c0-.14-.08-.28-.11-.43a2.8,2.8,0,0,0-.13-.38l-3.11-8.57h-1.51l4.19,10.77-.95,2.21a3.31,3.31,0,0,1-.85,1.27,1.74,1.74,0,0,1-1.17.41,2.59,2.59,0,0,1-.48,0l-.48-.12v1.26a3.15,3.15,0,0,0,1,.14,2.81,2.81,0,0,0,2-.77,6.38,6.38,0,0,0,1.47-2.35l5.16-12.78h-1.44Z"/><polygon points="561.14 371.97 559.73 371.97 559.73 387.13 567.26 387.13 567.26 385.85 561.14 385.85 561.14 371.97"/><path d="M571.24,371.91a1.1,1.1,0,0,0-.31-.2,1.21,1.21,0,0,0-.38-.06,1,1,0,0,0-.68.27.89.89,0,0,0-.29.68.91.91,0,0,0,.29.69.93.93,0,0,0,.68.28,1.23,1.23,0,0,0,.39-.07,1.06,1.06,0,0,0,.31-.21,1,1,0,0,0,.21-.31,1,1,0,0,0,.08-.38,1,1,0,0,0-.08-.39A1.11,1.11,0,0,0,571.24,371.91Z"/><rect x="569.88" y="376.31" width="1.36" height="10.82"/><path d="M580.25,382.47a4.19,4.19,0,0,0-1-.67,12.69,12.69,0,0,0-1.36-.63q-.62-.26-1.05-.48a3.39,3.39,0,0,1-.7-.46,1.72,1.72,0,0,1-.4-.55,1.86,1.86,0,0,1-.13-.7,1.52,1.52,0,0,1,.17-.71,1.65,1.65,0,0,1,.46-.56,2.43,2.43,0,0,1,.72-.36,3.38,3.38,0,0,1,.93-.12,4.78,4.78,0,0,1,2.63.78v-1.43a5.44,5.44,0,0,0-2.46-.53,5,5,0,0,0-1.46.21,3.92,3.92,0,0,0-1.23.6,2.86,2.86,0,0,0-.85.95,2.66,2.66,0,0,0-.31,1.28,3,3,0,0,0,.17,1,2.48,2.48,0,0,0,.52.82,4,4,0,0,0,.89.69,12.24,12.24,0,0,0,1.3.63c.38.15.71.3,1,.44a4,4,0,0,1,.77.46,1.94,1.94,0,0,1,.49.55,1.46,1.46,0,0,1,.17.71c0,1.21-.81,1.81-2.43,1.81a3.93,3.93,0,0,1-.74-.07,4.41,4.41,0,0,1-.77-.21,6.88,6.88,0,0,1-.74-.32,3.88,3.88,0,0,1-.67-.44v1.51a5.2,5.2,0,0,0,2.77.69,6.1,6.1,0,0,0,1.58-.2,3.86,3.86,0,0,0,1.26-.59,3,3,0,0,0,.84-1,3,3,0,0,0,.12-2.34A2.57,2.57,0,0,0,580.25,382.47Z"/><path d="M586.07,373.14l-1.36.44v2.73h-1.92v1.18h1.92v6.84c0,2,.87,3,2.63,3a3.38,3.38,0,0,0,1.53-.35v-1.19a2.22,2.22,0,0,1-1.22.38,1.44,1.44,0,0,1-1.22-.49,2.69,2.69,0,0,1-.36-1.58v-6.63h2.8v-1.18h-2.8Z"/><path d="M593.14,376.39a1.06,1.06,0,0,0-1.45,0,1,1,0,0,0-.3.72,1,1,0,0,0,.29.73,1,1,0,0,0,.73.29.85.85,0,0,0,.39-.08,1,1,0,0,0,.32-.21,1,1,0,0,0,.23-.32,1,1,0,0,0-.21-1.12Z"/><polygon points="590.42 389.83 591.45 389.83 593.22 384.73 591.83 384.73 590.42 389.83"/></g><g class="cls-18"><path d="M361.79,431.77a.85.85,0,0,0-.32-.19,1,1,0,0,0-1.06.2.91.91,0,0,0-.29.68,1,1,0,0,0,1,1,1,1,0,0,0,.39-.07,1,1,0,0,0,.31-.21.84.84,0,0,0,.22-.31,1,1,0,0,0,.07-.38,1,1,0,0,0-.08-.39A1,1,0,0,0,361.79,431.77Z"/><rect x="360.42" y="436.17" width="1.36" height="10.82"/><path d="M376.93,435.92a3.69,3.69,0,0,0-2.07.6,4.32,4.32,0,0,0-1.5,1.75,3.29,3.29,0,0,0-.44-.95,2.91,2.91,0,0,0-.7-.74,3.06,3.06,0,0,0-.91-.49,3.22,3.22,0,0,0-1.08-.17,3.65,3.65,0,0,0-3.35,2h0v-1.75h-1.37V447h1.37v-6.2a5.15,5.15,0,0,1,.21-1.51,3.82,3.82,0,0,1,.61-1.17,2.84,2.84,0,0,1,.91-.75,2.38,2.38,0,0,1,1.12-.27q2.63,0,2.63,3.4V447h1.36v-6.25a4.44,4.44,0,0,1,.23-1.44,3.6,3.6,0,0,1,.63-1.16,2.86,2.86,0,0,1,.93-.77,2.33,2.33,0,0,1,1.12-.28,3.13,3.13,0,0,1,1.16.19,1.76,1.76,0,0,1,.79.61A2.86,2.86,0,0,1,379,439a7.57,7.57,0,0,1,.15,1.64V447h1.36v-6.68Q380.52,435.92,376.93,435.92Z"/><path d="M392.62,437.35a3.85,3.85,0,0,0-1.39-1.06,4.79,4.79,0,0,0-4.15.22,4.39,4.39,0,0,0-1.63,1.73h0v-2.07h-1.36V452h1.36v-6.72h0a3.71,3.71,0,0,0,3.44,2,4.63,4.63,0,0,0,2-.43,4.55,4.55,0,0,0,1.55-1.23,5.7,5.7,0,0,0,1-1.9,8.2,8.2,0,0,0,.34-2.45,7.57,7.57,0,0,0-.3-2.21A5,5,0,0,0,392.62,437.35Zm-.47,5.88a4.72,4.72,0,0,1-.72,1.53,3.18,3.18,0,0,1-1.12,1,3.13,3.13,0,0,1-1.48.34,3.32,3.32,0,0,1-1.39-.28,3.25,3.25,0,0,1-1.08-.78,3.69,3.69,0,0,1-.7-1.14,4,4,0,0,1-.25-1.39v-1.44a4.65,4.65,0,0,1,.26-1.54,3.76,3.76,0,0,1,.73-1.26,3.52,3.52,0,0,1,1.16-.85,3.58,3.58,0,0,1,1.53-.31,3.23,3.23,0,0,1,1.37.28,3,3,0,0,1,1,.83,3.88,3.88,0,0,1,.66,1.3,5.81,5.81,0,0,1,.24,1.72A7.79,7.79,0,0,1,392.15,443.23Z"/><path d="M405.35,437.42a4.33,4.33,0,0,0-1.6-1.12,5.54,5.54,0,0,0-2.13-.38,6.1,6.1,0,0,0-2.23.39,4.78,4.78,0,0,0-1.71,1.13,5.17,5.17,0,0,0-1.09,1.82,7.23,7.23,0,0,0-.38,2.42,6.84,6.84,0,0,0,.36,2.27,4.94,4.94,0,0,0,1.05,1.76,4.5,4.5,0,0,0,1.64,1.13,6.12,6.12,0,0,0,4.38,0,4.57,4.57,0,0,0,1.66-1.16,5.39,5.39,0,0,0,1.05-1.79,7,7,0,0,0,.36-2.31,7.31,7.31,0,0,0-.35-2.38A4.8,4.8,0,0,0,405.35,437.42Zm-.29,6.07a3.65,3.65,0,0,1-.74,1.41,3.06,3.06,0,0,1-1.19.88,4.06,4.06,0,0,1-1.61.3,4,4,0,0,1-1.62-.31,3.54,3.54,0,0,1-1.23-.89,4.31,4.31,0,0,1-.78-1.4,5.77,5.77,0,0,1-.27-1.83,6.32,6.32,0,0,1,.27-1.92,4.16,4.16,0,0,1,.79-1.44,3.42,3.42,0,0,1,1.24-.89,4,4,0,0,1,1.62-.31,3.42,3.42,0,0,1,2.79,1.16,5,5,0,0,1,1,3.34A6.48,6.48,0,0,1,405.06,443.49Z"/><path d="M414.09,436a2.71,2.71,0,0,0-.95.17,2.76,2.76,0,0,0-.84.49,3.26,3.26,0,0,0-.67.79,4.91,4.91,0,0,0-.49,1.06h0v-2.31h-1.35V447h1.35V441.7a8,8,0,0,1,.06-1,6.91,6.91,0,0,1,.19-1,6.48,6.48,0,0,1,.35-1,3.48,3.48,0,0,1,.53-.8,2.34,2.34,0,0,1,.73-.56,2.12,2.12,0,0,1,1-.2,2.06,2.06,0,0,1,1.23.34v-1.41a2.15,2.15,0,0,0-.47-.13A3.57,3.57,0,0,0,414.09,436Z"/><path d="M420,433l-1.36.44v2.73h-1.91v1.18h1.91v6.84c0,2,.88,3,2.64,3a3.31,3.31,0,0,0,1.53-.35v-1.19a2.25,2.25,0,0,1-1.23.38,1.41,1.41,0,0,1-1.22-.49A2.69,2.69,0,0,1,420,444v-6.63h2.81v-1.18H420Z"/><path d="M432.42,431.77a.89.89,0,0,0-.31-.19,1,1,0,0,0-.39-.07,1,1,0,0,0-.68.27.9.9,0,0,0-.28.68.94.94,0,0,0,.28.7,1,1,0,0,0,.68.27,1,1,0,0,0,.39-.07,1,1,0,0,0,.31-.21.84.84,0,0,0,.22-.31,1,1,0,0,0,.07-.38,1,1,0,0,0-.08-.39A1,1,0,0,0,432.42,431.77Z"/><path d="M431.05,446.84c0,2.71-.85,4.06-2.57,4.06a3.13,3.13,0,0,1-1.57-.48v1.31a3.59,3.59,0,0,0,1.5.36,3.45,3.45,0,0,0,3-1.4,7.28,7.28,0,0,0,1-4.08V436.17h-1.36Z"/><path d="M440,435.92a5.47,5.47,0,0,0-1,.08,6.46,6.46,0,0,0-1,.22,5.39,5.39,0,0,0-.9.34,4.79,4.79,0,0,0-.78.43v1.48a5.36,5.36,0,0,1,3.53-1.38c1.63,0,2.44,1,2.44,3.12l-3.31.47a5,5,0,0,0-2.76,1.14,3.08,3.08,0,0,0-.92,2.34,3.22,3.22,0,0,0,.24,1.26,2.79,2.79,0,0,0,.68,1,2.91,2.91,0,0,0,1.08.63,4.19,4.19,0,0,0,1.42.22,3.83,3.83,0,0,0,2.07-.57,4,4,0,0,0,1.46-1.6h0V447h1.36v-7a4.33,4.33,0,0,0-.93-3A3.54,3.54,0,0,0,440,435.92Zm2.32,6.5a4.34,4.34,0,0,1-.25,1.46,3.77,3.77,0,0,1-.69,1.17,3.45,3.45,0,0,1-1.05.76,3.23,3.23,0,0,1-1.33.27,2.83,2.83,0,0,1-1-.15,1.84,1.84,0,0,1-.71-.41,1.78,1.78,0,0,1-.45-.64,2.16,2.16,0,0,1-.15-.81,2.53,2.53,0,0,1,.16-1,1.5,1.5,0,0,1,.5-.67,2.56,2.56,0,0,1,.86-.43,9,9,0,0,1,1.25-.26l2.81-.39Z"/><path d="M450.71,444.46a7.23,7.23,0,0,0-.33,1.27h0a5.92,5.92,0,0,0-.35-1.32l-3-8.24h-1.5L449.65,447H451l4.33-10.82h-1.45Z"/><path d="M461.36,435.92a5.55,5.55,0,0,0-1,.08,6.08,6.08,0,0,0-1,.22,5.18,5.18,0,0,0-.91.34,4.3,4.3,0,0,0-.77.43v1.48a5.34,5.34,0,0,1,3.53-1.38q2.43,0,2.43,3.12l-3.31.47a5,5,0,0,0-2.76,1.14,3.07,3.07,0,0,0-.91,2.34,3.4,3.4,0,0,0,.23,1.26,2.69,2.69,0,0,0,.69,1,2.79,2.79,0,0,0,1.07.63,4.19,4.19,0,0,0,1.42.22,3.89,3.89,0,0,0,2.08-.57,4,4,0,0,0,1.45-1.6h0V447H465v-7a4.33,4.33,0,0,0-.93-3A3.54,3.54,0,0,0,461.36,435.92Zm2.32,6.5a4.11,4.11,0,0,1-.25,1.46,3.77,3.77,0,0,1-.69,1.17,3.14,3.14,0,0,1-2.38,1,2.83,2.83,0,0,1-.95-.15,1.84,1.84,0,0,1-.71-.41,1.91,1.91,0,0,1-.45-.64,2.16,2.16,0,0,1-.15-.81,2.53,2.53,0,0,1,.16-1,1.5,1.5,0,0,1,.5-.67,2.66,2.66,0,0,1,.86-.43,9.34,9.34,0,0,1,1.25-.26l2.81-.39Z"/><path d="M470,445.45a1.55,1.55,0,0,0-.33-.21,1,1,0,0,0-.4-.08,1,1,0,0,0-.73.3,1,1,0,0,0-.29.73,1,1,0,0,0,.3.72,1,1,0,0,0,.72.29.87.87,0,0,0,.4-.08,1,1,0,0,0,.33-.21,1.12,1.12,0,0,0,.22-.33.85.85,0,0,0,.08-.39.91.91,0,0,0-.08-.41A1.12,1.12,0,0,0,470,445.45Z"/><path d="M480.63,442.35a4.53,4.53,0,0,1-.24,1.52,3.46,3.46,0,0,1-.65,1.18,2.86,2.86,0,0,1-1,.76,3,3,0,0,1-1.28.27,2.48,2.48,0,0,1-2.13-.93,4.76,4.76,0,0,1-.7-2.87v-6.11h-1.36v6.36q0,4.71,3.88,4.71a3.62,3.62,0,0,0,3.43-2.09h.05V447H482V436.17h-1.36Z"/><path d="M487.7,433l-1.36.44v2.73h-1.92v1.18h1.92v6.84c0,2,.87,3,2.63,3a3.31,3.31,0,0,0,1.53-.35v-1.19a2.22,2.22,0,0,1-1.22.38,1.41,1.41,0,0,1-1.22-.49,2.69,2.69,0,0,1-.36-1.58v-6.63h2.8v-1.18h-2.8Z"/><path d="M494.38,431.77a.89.89,0,0,0-.31-.19,1,1,0,0,0-.39-.07,1,1,0,0,0-.68.27.9.9,0,0,0-.28.68.94.94,0,0,0,.28.7,1,1,0,0,0,.68.27.94.94,0,0,0,.39-.07,1.11,1.11,0,0,0,.32-.21,1,1,0,0,0,.21-.31,1,1,0,0,0,.07-.38.85.85,0,0,0-.08-.39A1,1,0,0,0,494.38,431.77Z"/><rect x="493.02" y="436.17" width="1.36" height="10.82"/><rect x="498.08" y="430.97" width="1.36" height="16.02"/><path d="M504.56,445.45a1.48,1.48,0,0,0-.32-.21,1.1,1.1,0,0,0-.4-.08,1,1,0,0,0-1,1,1,1,0,0,0,1,1,.92.92,0,0,0,.4-.08,1,1,0,0,0,.32-.21,1,1,0,0,0,.22-.33.86.86,0,0,0,.09-.39.91.91,0,0,0-.09-.41A1,1,0,0,0,504.56,445.45Z"/><path d="M513.35,431.84,507.55,447h1.57l1.64-4.48h6.54L519,447h1.57l-5.77-15.15Zm-2.11,9.39,2.47-6.74c0-.13.1-.29.15-.47a5.39,5.39,0,0,0,.14-.6h0a3.88,3.88,0,0,0,.13.6c.05.18.1.34.15.47l2.49,6.74Z"/><path d="M527.41,436a2.81,2.81,0,0,0-1,.17,2.6,2.6,0,0,0-.83.49,3.29,3.29,0,0,0-.68.79,5.42,5.42,0,0,0-.48,1.06h0v-2.31h-1.35V447h1.35V441.7a8,8,0,0,1,.06-1,6.91,6.91,0,0,1,.19-1,5.52,5.52,0,0,1,.35-1,3.18,3.18,0,0,1,.53-.8,2.34,2.34,0,0,1,.73-.56,2.4,2.4,0,0,1,2.19.14v-1.41A2.15,2.15,0,0,0,528,436,3.65,3.65,0,0,0,527.41,436Z"/><path d="M535.17,436a2.75,2.75,0,0,0-.95.17,2.6,2.6,0,0,0-.83.49,3.29,3.29,0,0,0-.68.79,5.42,5.42,0,0,0-.48,1.06h0v-2.31h-1.35V447h1.35V441.7a8,8,0,0,1,.06-1,5.8,5.8,0,0,1,.19-1,5.52,5.52,0,0,1,.35-1,3.18,3.18,0,0,1,.53-.8,2.34,2.34,0,0,1,.73-.56,2,2,0,0,1,1-.2,2.07,2.07,0,0,1,1.24.34v-1.41a2.09,2.09,0,0,0-.48-.13A3.49,3.49,0,0,0,535.17,436Z"/><path d="M542.42,435.92a5.47,5.47,0,0,0-1,.08,6.46,6.46,0,0,0-1,.22,5.5,5.5,0,0,0-.91.34,5.13,5.13,0,0,0-.77.43v1.48a5.36,5.36,0,0,1,3.53-1.38c1.62,0,2.44,1,2.44,3.12l-3.31.47a5,5,0,0,0-2.76,1.14,3.08,3.08,0,0,0-.92,2.34,3.22,3.22,0,0,0,.24,1.26,2.79,2.79,0,0,0,.68,1,2.83,2.83,0,0,0,1.08.63,4.17,4.17,0,0,0,1.41.22,3.84,3.84,0,0,0,2.08-.57,3.88,3.88,0,0,0,1.45-1.6h0V447h1.36v-7a4.33,4.33,0,0,0-.93-3A3.54,3.54,0,0,0,542.42,435.92Zm2.32,6.5a4.34,4.34,0,0,1-.25,1.46,3.77,3.77,0,0,1-.69,1.17,3.45,3.45,0,0,1-1,.76,3.26,3.26,0,0,1-1.33.27,2.83,2.83,0,0,1-.95-.15,1.84,1.84,0,0,1-.71-.41,1.78,1.78,0,0,1-.45-.64,2.16,2.16,0,0,1-.15-.81,2.53,2.53,0,0,1,.16-1,1.56,1.56,0,0,1,.49-.67,2.72,2.72,0,0,1,.87-.43,9,9,0,0,1,1.25-.26l2.81-.39Z"/><path d="M553.07,444.78a3.15,3.15,0,0,0-.13.41c0,.12-.07.24-.1.36h-.06c0-.14-.07-.28-.11-.42s-.08-.28-.12-.39l-3.12-8.57h-1.51l4.19,10.77-.94,2.22a3.36,3.36,0,0,1-.86,1.26,1.74,1.74,0,0,1-1.16.42,3.89,3.89,0,0,1-.49,0,2.75,2.75,0,0,1-.47-.13v1.27a3.17,3.17,0,0,0,1,.13,2.84,2.84,0,0,0,2-.76,6.46,6.46,0,0,0,1.46-2.35l5.16-12.79h-1.43Z"/><polygon points="561.71 431.84 560.29 431.84 560.29 446.99 567.83 446.99 567.83 445.71 561.71 445.71 561.71 431.84"/><path d="M571.81,431.77a.89.89,0,0,0-.31-.19,1,1,0,0,0-.39-.07,1,1,0,0,0-.68.27.9.9,0,0,0-.28.68.94.94,0,0,0,.28.7,1,1,0,0,0,1.07.2,1,1,0,0,0,.31-.21.84.84,0,0,0,.22-.31,1,1,0,0,0,.07-.38.85.85,0,0,0-.08-.39A1,1,0,0,0,571.81,431.77Z"/><rect x="570.44" y="436.17" width="1.36" height="10.82"/><path d="M580.81,442.34a4,4,0,0,0-.95-.68,11.83,11.83,0,0,0-1.36-.63c-.41-.17-.76-.33-1-.47a3.4,3.4,0,0,1-.7-.47,1.36,1.36,0,0,1-.4-.54,1.73,1.73,0,0,1-.13-.71,1.51,1.51,0,0,1,.63-1.26,1.9,1.9,0,0,1,.71-.36,3,3,0,0,1,.93-.13,4.79,4.79,0,0,1,2.64.78v-1.43a5.45,5.45,0,0,0-2.47-.52,5,5,0,0,0-1.46.2,4.14,4.14,0,0,0-1.23.6,3,3,0,0,0-.84.95,2.55,2.55,0,0,0-.31,1.28,2.73,2.73,0,0,0,.17,1,2.33,2.33,0,0,0,.52.82,4.12,4.12,0,0,0,.89.7,10.67,10.67,0,0,0,1.3.62c.37.15.71.3,1,.44a4.49,4.49,0,0,1,.76.46,1.93,1.93,0,0,1,.49.55,1.47,1.47,0,0,1,.17.72c0,1.2-.81,1.8-2.42,1.8A3.85,3.85,0,0,1,577,446a4.15,4.15,0,0,1-.77-.2,5,5,0,0,1-.75-.33,5.1,5.1,0,0,1-.67-.43v1.51a5.23,5.23,0,0,0,2.78.68,5.58,5.58,0,0,0,1.57-.2,3.86,3.86,0,0,0,1.26-.59,2.68,2.68,0,0,0,1.14-2.26,2.8,2.8,0,0,0-.18-1A2.29,2.29,0,0,0,580.81,442.34Z"/><path d="M586.63,433l-1.36.44v2.73h-1.91v1.18h1.91v6.84c0,2,.88,3,2.64,3a3.31,3.31,0,0,0,1.53-.35v-1.19a2.24,2.24,0,0,1-1.22.38,1.42,1.42,0,0,1-1.23-.49,2.69,2.69,0,0,1-.36-1.58v-6.63h2.81v-1.18h-2.81Z"/><path d="M593.7,436.25A1,1,0,0,0,593,436a1,1,0,0,0-.73.28,1.05,1.05,0,0,0,0,1.45,1,1,0,0,0,1.11.22,1.19,1.19,0,0,0,.33-.22,1,1,0,0,0,.22-.32A.91.91,0,0,0,594,437,.94.94,0,0,0,593.7,436.25Z"/><polygon points="590.98 449.7 592.01 449.7 593.79 444.59 592.39 444.59 590.98 449.7"/></g><text class="cls-19" transform="translate(40.8 282.83) scale(1.01 1)"><tspan class="cls-20">r</tspan><tspan x="7.93" y="0">etu</tspan><tspan class="cls-21" x="41.59" y="0">r</tspan><tspan x="49.79" y="0">n false; </tspan></text><text class="cls-19" transform="translate(343.43 759.89) scale(1.01 1)"><tspan class="cls-20">r</tspan><tspan x="7.93" y="0">etu</tspan><tspan class="cls-21" x="41.59" y="0">r</tspan><tspan x="49.79" y="0">n false; </tspan></text><text class="cls-3" transform="translate(0 25.42) scale(1.01 1)"><tspan xml:space="preserve"> for (</tspan><tspan class="cls-22" x="44.29" y="0">S</tspan><tspan x="54.72" y="0">tring </tspan><tspan class="cls-23" x="104.04" y="0">w</tspan><tspan x="119.12" y="0">o</tspan><tspan class="cls-24" x="131.53" y="0">r</tspan><tspan class="cls-25" x="138.58" y="0">d : s.split(&quot; &quot;)) </tspan></text><text class="cls-3" transform="translate(34.28 66.68) scale(1.01 1)"><tspan xml:space="preserve"> for (</tspan><tspan class="cls-22" x="44.29" y="0">S</tspan><tspan x="54.72" y="0">tring </tspan><tspan class="cls-23" x="104.04" y="0">w</tspan><tspan x="119.12" y="0">o</tspan><tspan class="cls-24" x="131.53" y="0">r</tspan><tspan class="cls-25" x="138.58" y="0">d : s.split(&quot; &quot;)) </tspan></text><text class="cls-3" transform="translate(316.87 555.72) scale(1.01 1)"><tspan xml:space="preserve"> for (</tspan><tspan class="cls-22" x="44.29" y="0">S</tspan><tspan x="54.72" y="0">tring </tspan><tspan class="cls-23" x="104.04" y="0">w</tspan><tspan x="119.12" y="0">o</tspan><tspan class="cls-24" x="131.53" y="0">r</tspan><tspan class="cls-25" x="138.58" y="0">d : s.split(&quot; &quot;)) </tspan></text><text class="cls-26" transform="translate(18.31 193.13) scale(1.01 1)">public st<tspan class="cls-27" x="86.34" y="0">a</tspan><tspan x="97.98" y="0">tic </tspan><tspan class="cls-28" x="127.8" y="0">v</tspan><tspan x="139.27" y="0">oid main(</tspan><tspan class="cls-29" x="235.4" y="0">S</tspan><tspan x="247.33" y="0">t</tspan><tspan class="cls-30" x="255.39" y="0">r</tspan><tspan class="cls-31" x="263.44" y="0">ing[] a</tspan><tspan class="cls-32" x="326.99" y="0">r</tspan><tspan x="334.76" y="0">gs) </tspan></text><text class="cls-26" transform="translate(18.31 517.31) scale(1.01 1)">public st<tspan class="cls-27" x="86.34" y="0">a</tspan><tspan x="97.98" y="0">tic </tspan><tspan class="cls-28" x="127.8" y="0">v</tspan><tspan x="139.27" y="0">oid main(</tspan><tspan class="cls-29" x="235.4" y="0">S</tspan><tspan x="247.33" y="0">t</tspan><tspan class="cls-30" x="255.39" y="0">r</tspan><tspan x="263.44" y="0">ing[] a</tspan><tspan class="cls-32" x="326.99" y="0">r</tspan><tspan x="334.76" y="0">gs) </tspan></text><text class="cls-26" transform="translate(219.34 676.96) scale(1.01 1)">public st<tspan class="cls-27" x="86.34" y="0">a</tspan><tspan x="97.98" y="0">tic </tspan><tspan class="cls-28" x="127.8" y="0">v</tspan><tspan x="139.27" y="0">oid main(</tspan><tspan class="cls-29" x="235.4" y="0">S</tspan><tspan x="247.33" y="0">t</tspan><tspan class="cls-30" x="255.39" y="0">r</tspan><tspan x="263.44" y="0">ing[] a</tspan><tspan class="cls-32" x="326.99" y="0">r</tspan><tspan x="334.76" y="0">gs) </tspan></text><text class="cls-33" transform="translate(780.74 282.78)">Hey! I’m </text><text class="cls-34" transform="translate(696.19 363.75)">Mutiur Rehmaan Khan</text><text class="cls-35" transform="translate(823.39 415.62)">And I love Competitive.</text></svg>